#!OML:ASF I:\Actors\actors\Patient Classification 2\Patient 1\Session 1\actor1.ASF
:FULLY-SPECIFIED
:DEGREES
156
root -1.26889 17.3585 5.76573 -7.91438 -19.9931 -0.330991
lowerback 12.3936 -5.70727 2.96124
upperback -0.0772813 -6.82452 5.41418
thorax -6.6866 -3.36315 5.31366
lowerneck -20.588 6.43963 6.47131
upperneck 14.4214 7.78753 -4.73196
head 8.28672 3.56837 -1.60196
rclavicle 8.1744e-014 2.22639e-014
rhumerus -5.96323 37.8963 -73.9807
rradius 123.039
rwrist 8.29295
rhand -33.0287 -25.2172
rfingers 7.12502
rthumb -6.24187 -55.1052
lclavicle 8.1744e-014 2.22639e-014
lhumerus 7.10802 -43.999 67.6392
lradius 119.068
lwrist 18.1667
lhand -19.7805 -56.7618
lfingers 7.12502
lthumb 6.55167 -26.8831
rfemur 34.3139 8.32644 17.9775
rtibia -38.048
rfoot 6.59985 -14.7469
rtoes -6.60675
lfemur 38.3132 16.5385 -11.4195
ltibia -34.9853
lfoot 8.2019 15.0126
ltoes -21.721
157
root -1.26867 17.3563 5.7806 -7.941 -20.6622 -0.229606
lowerback 12.242 -5.87369 3.07287
upperback -0.125177 -7.03138 5.55542
thorax -6.63612 -3.46842 5.42453
lowerneck -20.5229 6.73017 6.79905
upperneck 14.3199 8.15461 -5.06357
head 8.29214 3.7272 -1.71467
rclavicle 3.09234e-014 -3.97569e-014
rhumerus -5.9506 37.6462 -74.0252
rradius 123.486
rwrist 7.1398
rhand -32.7248 -26.8925
rfingers 7.12502
rthumb -5.94857 -56.789
lclavicle 3.09234e-014 -3.97569e-014
lhumerus 7.62834 -44.0038 67.2803
lradius 119.069
lwrist 18.0999
lhand -19.8585 -56.6604
lfingers 7.12502
lthumb 6.47646 -26.7794
rfemur 34.2879 8.9425 17.9759
rtibia -38.1023
rfoot 6.6666 -14.6635
rtoes -6.67574
lfemur 38.4313 16.975 -11.414
ltibia -34.7887
lfoot 7.90747 15.2044
ltoes -21.3059
158
root -1.26693 17.3551 5.79405 -7.94547 -21.3249 -0.159608
lowerback 12.0934 -6.02041 3.27256
upperback -0.151966 -7.20406 5.63225
thorax -6.58593 -3.5602 5.41062
lowerneck -20.5634 6.99846 7.19598
upperneck 14.3615 8.4519 -5.30213
head 8.36048 3.86362 -1.81257
rclavicle 3.02153e-014 6.36111e-015
rhumerus -5.8257 36.9983 -74.0143
rradius 123.579
rwrist 5.42078
rhand -33.5474 -26.1141
rfingers 7.12502
rthumb -6.74268 -55.9867
lclavicle 3.02153e-014 6.36111e-015
lhumerus 8.36138 -44.02 66.6556
lradius 119.053
lwrist 18.3237
lhand -19.7899 -56.5989
lfingers 7.12502
lthumb 6.54262 -26.72
rfemur 34.2346 9.53 17.9948
rtibia -38.1432
rfoot 6.7518 -14.554
rtoes -6.88642
lfemur 38.5402 17.4065 -11.3859
ltibia -34.6165
lfoot 7.62365 15.4006
ltoes -20.8826
159
root -1.26542 17.3571 5.80738 -7.93749 -21.9209 -0.0777635
lowerback 11.9828 -6.21567 3.42478
upperback -0.178414 -7.44481 5.73682
thorax -6.54341 -3.68351 5.46836
lowerneck -20.6217 7.25882 7.47659
upperneck 14.3843 8.76677 -5.52229
head 8.42239 4.00324 -1.88268
rclavicle 6.81536e-014 -1.43125e-014
rhumerus -5.60134 36.6976 -73.8691
rradius 123.731
rwrist 4.13256
rhand -33.4142 -25.2585
rfingers 7.12502
rthumb -6.61406 -55.1353
lclavicle 6.81536e-014 -1.43125e-014
lhumerus 8.89694 -43.8946 66.2599
lradius 118.957
lwrist 18.5046
lhand -19.7538 -56.628
lfingers 7.12502
lthumb 6.57747 -26.7502
rfemur 34.1588 10.0139 17.9812
rtibia -38.1746
rfoot 6.85743 -14.4324
rtoes -7.16444
lfemur 38.6048 17.7666 -11.4002
ltibia -34.4599
lfoot 7.42281 15.6169
ltoes -20.6172
160
root -1.26349 17.3595 5.82104 -7.8852 -22.5108 -0.0602399
lowerback 11.8718 -6.43563 3.63172
upperback -0.213184 -7.70923 5.87223
thorax -6.51154 -3.81968 5.53379
lowerneck -20.568 7.50517 7.71036
upperneck 14.3035 9.08686 -5.77691
head 8.43187 4.14202 -1.95959
rclavicle -3.36443e-014 -3.18055e-015
rhumerus -5.39397 36.7189 -73.6838
rradius 123.922
rwrist 4.06766
rhand -32.3947 -25.7825
rfingers 7.12502
rthumb -5.62979 -55.6877
lclavicle -3.36443e-014 -3.18055e-015
lhumerus 9.18523 -43.7197 66.0846
lradius 118.913
lwrist 18.56
lhand -19.8683 -56.5854
lfingers 7.12502
lthumb 6.467 -26.7041
rfemur 34.0629 10.5174 18.0354
rtibia -38.2047
rfoot 6.91737 -14.3899
rtoes -7.23532
lfemur 38.6453 18.1212 -11.3619
ltibia -34.3191
lfoot 7.25822 15.8
ltoes -20.8244
161
root -1.2608 17.3598 5.83534 -7.85719 -23.1374 0.0108227
lowerback 11.6851 -6.62197 3.84344
upperback -0.215144 -7.94029 5.94098
thorax -6.41478 -3.9416 5.50542
lowerneck -20.4816 7.72236 7.99087
upperneck 14.2311 9.35831 -6.03939
head 8.43965 4.26044 -2.054
rclavicle 5.13734e-014 0
rhumerus -5.23911 36.7487 -73.541
rradius 124.019
rwrist 4.77128
rhand -31.6661 -26.6879
rfingers 7.12502
rthumb -4.92632 -56.6106
lclavicle 5.13734e-014 0
lhumerus 9.46184 -43.5926 65.8682
lradius 118.896
lwrist 18.505
lhand -19.9687 -56.4618
lfingers 7.12502
lthumb 6.37008 -26.5775
rfemur 33.9747 11.0375 18.0233
rtibia -38.2441
rfoot 6.99238 -14.337
rtoes -7.36545
lfemur 38.7123 18.5083 -11.3693
ltibia -34.1875
lfoot 7.02941 16.0062
ltoes -20.6887
162
root -1.25935 17.3603 5.849 -7.84214 -23.7357 0.126472
lowerback 11.6631 -6.74773 3.87623
upperback -0.30074 -8.09389 6.08781
thorax -6.46841 -4.01633 5.67562
lowerneck -20.3984 7.87614 8.10634
upperneck 14.203 9.58668 -6.26406
head 8.451 4.35317 -2.11586
rclavicle -4.62299e-014 -9.54166e-015
rhumerus -5.14392 36.6247 -73.2323
rradius 123.961
rwrist 4.54631
rhand -32.3168 -26.4855
rfingers 7.12502
rthumb -5.5546 -56.3927
lclavicle -4.62299e-014 -9.54166e-015
lhumerus 9.65805 -43.5337 65.8853
lradius 118.811
lwrist 18.3739
lhand -19.9408 -56.2784
lfingers 7.12502
lthumb 6.39699 -26.395
rfemur 33.8861 11.493 17.9478
rtibia -38.3045
rfoot 7.12503 -14.2345
rtoes -7.57745
lfemur 38.7647 18.8938 -11.4163
ltibia -34.0578
lfoot 6.82836 16.1996
ltoes -20.0926
163
root -1.25982 17.3609 5.86151 -7.80236 -24.2958 0.205943
lowerback 11.5756 -6.87441 3.96926
upperback -0.324524 -8.25265 6.17355
thorax -6.43596 -4.09775 5.73304
lowerneck -20.3885 8.00677 8.25592
upperneck 14.1436 9.75159 -6.42273
head 8.45806 4.42318 -2.16835
rclavicle -6.42571e-014 -3.18055e-015
rhumerus -5.00664 36.3364 -72.9527
rradius 124.109
rwrist 3.09082
rhand -32.5872 -25.7579
rfingers 7.12502
rthumb -5.8157 -55.6581
lclavicle -6.42571e-014 -3.18055e-015
lhumerus 9.97407 -43.546 65.708
lradius 118.719
lwrist 18.4899
lhand -19.8528 -56.1364
lfingers 7.12502
lthumb 6.48189 -26.2556
rfemur 33.7963 11.9299 17.9136
rtibia -38.386
rfoot 7.25157 -14.1641
rtoes -7.57916
lfemur 38.7813 19.3043 -11.4145
ltibia -33.9172
lfoot 6.73626 16.2788
ltoes -20.0339
164
root -1.26131 17.3611 5.87368 -7.81704 -24.8539 0.367326
lowerback 11.4887 -6.99086 4.01952
upperback -0.315199 -8.40941 6.18608
thorax -6.37342 -4.17805 5.73129
lowerneck -20.5258 8.13554 8.40473
upperneck 14.2507 9.89063 -6.47823
head 8.53906 4.48667 -2.18405
rclavicle -1.20513e-014 -1.90833e-014
rhumerus -4.92869 36.0307 -72.7115
rradius 124.379
rwrist 1.8844
rhand -32.2612 -25.0038
rfingers 7.12502
rthumb -5.5009 -54.9124
lclavicle -1.20513e-014 -1.90833e-014
lhumerus 10.2067 -43.5725 65.5399
lradius 118.639
lwrist 18.7363
lhand -19.8131 -56.1527
lfingers 7.12502
lthumb 6.52021 -26.273
rfemur 33.7388 12.3509 17.7966
rtibia -38.4853
rfoot 7.37622 -14.0849
rtoes -7.61795
lfemur 38.8102 19.7081 -11.4936
ltibia -33.7649
lfoot 6.64764 16.3509
ltoes -20.3194
165
root -1.26312 17.3631 5.88556 -7.82955 -25.4091 0.561407
lowerback 11.3843 -7.09079 4.04883
upperback -0.303462 -8.5501 6.16678
thorax -6.30144 -4.25023 5.70098
lowerneck -20.6254 8.26719 8.57739
upperneck 14.3399 10.0198 -6.49252
head 8.60602 4.55213 -2.19199
rclavicle 4.05521e-014 2.54444e-014
rhumerus -4.81737 35.9371 -72.6194
rradius 124.081
rwrist 3.06293
rhand -33.3053 -24.7994
rfingers 7.12502
rthumb -6.50893 -54.6793
lclavicle 4.05521e-014 2.54444e-014
lhumerus 10.4597 -43.5416 65.3337
lradius 118.559
lwrist 18.8472
lhand -19.7954 -56.1941
lfingers 7.12502
lthumb 6.53737 -26.315
rfemur 33.6635 12.749 17.6371
rtibia -38.607
rfoot 7.52637 -13.9939
rtoes -7.79421
lfemur 38.8137 20.0896 -11.6246
ltibia -33.6134
lfoot 6.49061 16.4698
ltoes -20.4467
166
root -1.2655 17.3644 5.8959 -7.79808 -25.9425 0.729221
lowerback 11.2147 -7.18362 4.08807
upperback -0.269171 -8.68691 6.15146
thorax -6.17035 -4.32209 5.65595
lowerneck -20.666 8.39051 8.77916
upperneck 14.3123 10.147 -6.60517
head 8.63076 4.61026 -2.24047
rclavicle -1.50082e-014 -3.81667e-014
rhumerus -4.62421 35.9312 -72.6256
rradius 123.546
rwrist 5.05284
rhand -34.5099 -24.9883
rfingers 7.12502
rthumb -7.67179 -54.8292
lclavicle -1.50082e-014 -3.81667e-014
lhumerus 10.8078 -43.3852 65.0333
lradius 118.469
lwrist 18.9727
lhand -19.5257 -56.3258
lfingers 7.12502
lthumb 6.7977 -26.4549
rfemur 33.5574 13.127 17.494
rtibia -38.7631
rfoot 7.67172 -13.9507
rtoes -7.74248
lfemur 38.7691 20.5112 -11.7223
ltibia -33.4531
lfoot 6.29795 16.54
ltoes -20.4799
167
root -1.26789 17.362 5.904 -7.81101 -26.4609 0.926424
lowerback 11.1121 -7.19053 4.11074
upperback -0.209784 -8.71074 6.04957
thorax -6.0678 -4.33743 5.51743
lowerneck -20.8111 8.46344 9.11836
upperneck 14.3201 10.1637 -6.75559
head 8.68643 4.61723 -2.33645
rclavicle 1.06896e-013 -6.36111e-014
rhumerus -4.63222 35.8597 -72.7769
rradius 123.428
rwrist 5.52262
rhand -34.9047 -25.4175
rfingers 7.12502
rthumb -8.05283 -55.2441
lclavicle 1.06896e-013 -6.36111e-014
lhumerus 11.2464 -43.3389 64.6473
lradius 118.407
lwrist 19.1077
lhand -19.1369 -56.5485
lfingers 7.12502
lthumb 7.17304 -26.6901
rfemur 33.4964 13.4736 17.3172
rtibia -38.9449
rfoot 7.78352 -13.9537
rtoes -7.22353
lfemur 38.7602 20.949 -11.8199
ltibia -33.2953
lfoot 6.10344 16.5975
ltoes -20.4155
168
root -1.26996 17.3585 5.91277 -7.88298 -26.9822 1.19419
lowerback 11.076 -6.99948 4.17618
upperback -0.0523888 -8.47491 5.70944
thorax -5.95457 -4.22672 5.06363
lowerneck -21.4799 8.48213 9.97979
upperneck 14.5265 9.91363 -6.95785
head 8.90675 4.50835 -2.55666
rclavicle -1.0297e-013 1.59028e-014
rhumerus -4.77041 34.9536 -73.1617
rradius 123.317
rwrist 6.03731
rhand -35.1283 -25.6282
rfingers 7.12502
rthumb -8.26858 -55.4464
lclavicle -1.0297e-013 1.59028e-014
lhumerus 12.306 -43.7608 63.7492
lradius 118.347
lwrist 19.1985
lhand -18.9763 -56.5373
lfingers 7.12502
lthumb 7.32807 -26.6842
rfemur 33.4766 13.7961 17.0691
rtibia -39.1409
rfoot 7.93316 -13.9175
rtoes -6.84324
lfemur 38.8044 21.3535 -11.9837
ltibia -33.1573
lfoot 5.84345 16.7369
ltoes -20.1158
169
root -1.27323 17.3564 5.92047 -7.91358 -27.5067 1.40811
lowerback 10.9416 -6.69943 4.32738
upperback 0.312703 -8.10864 5.26629
thorax -5.59477 -4.05713 4.40218
lowerneck -22.8805 8.5586 11.1388
upperneck 14.9067 9.55667 -7.17684
head 9.31497 4.34712 -2.83067
rclavicle -6.30147e-014 -4.77083e-014
rhumerus -4.55683 33.5694 -73.4509
rradius 123.146
rwrist 6.81618
rhand -35.343 -26.0626
rfingers 7.12502
rthumb -8.47577 -55.8725
lclavicle -6.30147e-014 -4.77083e-014
lhumerus 14.2118 -44.3042 62.1739
lradius 118.183
lwrist 19.2642
lhand -19.0841 -56.5476
lfingers 7.12502
lthumb 7.224 -26.6909
rfemur 33.4292 14.1451 16.8867
rtibia -39.3414
rfoot 8.1433 -13.8385
rtoes -6.93334
lfemur 38.8338 21.785 -12.0881
ltibia -33.0366
lfoot 5.62904 16.854
ltoes -20.3165
